<mxfile host="Electron" modified="2024-07-09T13:34:22.178Z" agent="Mozilla/5.0 (Windows NT 10.0; Win64; x64) AppleWebKit/537.36 (KHTML, like Gecko) draw.io/24.5.3 Chrome/124.0.6367.207 Electron/30.0.6 Safari/537.36" etag="_UakESEsh0lkd3zK6WyF" version="24.5.3" type="device">
  <diagram name="Page-1" id="nADWinMBTUPVHZAI8eLR">
    <mxGraphModel dx="1276" dy="606" grid="1" gridSize="10" guides="1" tooltips="1" connect="1" arrows="1" fold="1" page="1" pageScale="1" pageWidth="827" pageHeight="1169" math="0" shadow="0">
      <root>
        <mxCell id="0" />
        <mxCell id="1" parent="0" />
        <mxCell id="fhVOCeMNc6bVe-KWatDS-11" value="" style="rounded=0;whiteSpace=wrap;html=1;fillColor=none;dashed=1;dashPattern=8 8;strokeColor=#FFB366;strokeWidth=2;" parent="1" vertex="1">
          <mxGeometry x="470" y="511" width="490" height="110" as="geometry" />
        </mxCell>
        <mxCell id="aqI84xdJ39RmTFRJNVE5-1" value="Audit" style="rounded=1;whiteSpace=wrap;html=1;" parent="1" vertex="1">
          <mxGeometry x="158" y="45" width="120" height="60" as="geometry" />
        </mxCell>
        <mxCell id="aqI84xdJ39RmTFRJNVE5-2" value="Pentest" style="rounded=1;whiteSpace=wrap;html=1;" parent="1" vertex="1">
          <mxGeometry x="158" y="440" width="120" height="60" as="geometry" />
        </mxCell>
        <mxCell id="aqI84xdJ39RmTFRJNVE5-3" value="User profiles&amp;nbsp;(objet *USRPRF dans QSYS)" style="rounded=1;whiteSpace=wrap;html=1;" parent="1" vertex="1">
          <mxGeometry x="320" y="45" width="120" height="60" as="geometry" />
        </mxCell>
        <UserObject label="Limit capabilities (LMTCPB users)" link="https://www.ibm.com/docs/en/i/7.1?topic=fields-limit-capabilities" id="aqI84xdJ39RmTFRJNVE5-4">
          <mxCell style="rounded=1;whiteSpace=wrap;html=1;" parent="1" vertex="1">
            <mxGeometry x="480" y="45" width="120" height="60" as="geometry" />
          </mxCell>
        </UserObject>
        <UserObject label="Droits et classes de droits" id="aqI84xdJ39RmTFRJNVE5-5">
          <mxCell style="rounded=1;whiteSpace=wrap;html=1;" parent="1" vertex="1">
            <mxGeometry x="480" y="124" width="120" height="60" as="geometry" />
          </mxCell>
        </UserObject>
        <mxCell id="aqI84xdJ39RmTFRJNVE5-6" value="Program breakout" style="rounded=1;whiteSpace=wrap;html=1;" parent="1" vertex="1">
          <mxGeometry x="320" y="440" width="120" height="60" as="geometry" />
        </mxCell>
        <mxCell id="aqI84xdJ39RmTFRJNVE5-7" value="Privilege Escalation" style="rounded=1;whiteSpace=wrap;html=1;" parent="1" vertex="1">
          <mxGeometry x="320" y="521" width="120" height="60" as="geometry" />
        </mxCell>
        <mxCell id="aqI84xdJ39RmTFRJNVE5-8" value="Profile Swapping" style="rounded=1;whiteSpace=wrap;html=1;" parent="1" vertex="1">
          <mxGeometry x="480" y="521" width="120" height="60" as="geometry" />
        </mxCell>
        <mxCell id="aqI84xdJ39RmTFRJNVE5-9" value="*ALLOBJ Special Authority" style="rounded=1;whiteSpace=wrap;html=1;" parent="1" vertex="1">
          <mxGeometry x="640" y="521" width="120" height="60" as="geometry" />
        </mxCell>
        <UserObject label="SBMJOB" link="https://www.ibm.com/docs/en/i/7.2?topic=ssw_ibm_i_72/cl/sbmjob.htm" id="aqI84xdJ39RmTFRJNVE5-10">
          <mxCell style="rounded=1;whiteSpace=wrap;html=1;" parent="1" vertex="1">
            <mxGeometry x="800" y="521" width="120" height="60" as="geometry" />
          </mxCell>
        </UserObject>
        <UserObject label="searching for *SECADM authority users" link="https://www.ibm.com/docs/fr/db2/11.5?topic=authorities-security-administration-authority-secadm" id="aqI84xdJ39RmTFRJNVE5-11">
          <mxCell style="rounded=1;whiteSpace=wrap;html=1;" parent="1" vertex="1">
            <mxGeometry x="800" y="631" width="120" height="60" as="geometry" />
          </mxCell>
        </UserObject>
        <mxCell id="aqI84xdJ39RmTFRJNVE5-12" value="Recon (+exploits)" style="rounded=1;whiteSpace=wrap;html=1;" parent="1" vertex="1">
          <mxGeometry x="320" y="760" width="120" height="60" as="geometry" />
        </mxCell>
        <UserObject label="Remote Command API (port 8475)" link="https://www.ibm.com/docs/en/i/7.1?topic=iawca-i-access-windows-remote-commanddistributed-program-call-apis" id="aqI84xdJ39RmTFRJNVE5-13">
          <mxCell style="rounded=1;whiteSpace=wrap;html=1;" parent="1" vertex="1">
            <mxGeometry x="480" y="760" width="120" height="60" as="geometry" />
          </mxCell>
        </UserObject>
        <mxCell id="aqI84xdJ39RmTFRJNVE5-14" value="(switching to an *ALLOBJ profile)" style="text;html=1;align=center;verticalAlign=middle;whiteSpace=wrap;rounded=0;" parent="1" vertex="1">
          <mxGeometry x="530" y="585" width="200" height="30" as="geometry" />
        </mxCell>
        <UserObject label="database service (port 8471)" id="aqI84xdJ39RmTFRJNVE5-15">
          <mxCell style="rounded=1;whiteSpace=wrap;html=1;" parent="1" vertex="1">
            <mxGeometry x="480" y="840" width="120" height="60" as="geometry" />
          </mxCell>
        </UserObject>
        <mxCell id="aqI84xdJ39RmTFRJNVE5-16" value="Enum" style="rounded=1;whiteSpace=wrap;html=1;" parent="1" vertex="1">
          <mxGeometry x="320" y="1640" width="120" height="60" as="geometry" />
        </mxCell>
        <UserObject label="Hydra" link="https://tryhackme.com/r/room/hydra" id="aqI84xdJ39RmTFRJNVE5-17">
          <mxCell style="rounded=1;whiteSpace=wrap;html=1;" parent="1" vertex="1">
            <mxGeometry x="480" y="1640" width="120" height="60" as="geometry" />
          </mxCell>
        </UserObject>
        <UserObject label="Java (Every IBM i has Java installed)" id="aqI84xdJ39RmTFRJNVE5-19">
          <mxCell style="rounded=1;whiteSpace=wrap;html=1;" parent="1" vertex="1">
            <mxGeometry x="480" y="921" width="120" height="60" as="geometry" />
          </mxCell>
        </UserObject>
        <UserObject label="Java bind shell" id="aqI84xdJ39RmTFRJNVE5-20">
          <mxCell style="rounded=1;whiteSpace=wrap;html=1;" parent="1" vertex="1">
            <mxGeometry x="640" y="921" width="120" height="60" as="geometry" />
          </mxCell>
        </UserObject>
        <UserObject label="UNIX subsystem of IBM i (PASE)" link="https://www.ibm.com/docs/en/i/7.3?topic=programming-pase-i" id="aqI84xdJ39RmTFRJNVE5-21">
          <mxCell style="rounded=1;whiteSpace=wrap;html=1;" parent="1" vertex="1">
            <mxGeometry x="480" y="1000" width="120" height="60" as="geometry" />
          </mxCell>
        </UserObject>
        <UserObject label="Run commands from PASE" id="aqI84xdJ39RmTFRJNVE5-22">
          <mxCell style="rounded=1;whiteSpace=wrap;html=1;" parent="1" vertex="1">
            <mxGeometry x="640" y="1000" width="120" height="60" as="geometry" />
          </mxCell>
        </UserObject>
        <UserObject label="run arbitrary SQL queries" id="aqI84xdJ39RmTFRJNVE5-23">
          <mxCell style="rounded=1;whiteSpace=wrap;html=1;" parent="1" vertex="1">
            <mxGeometry x="640" y="840" width="120" height="60" as="geometry" />
          </mxCell>
        </UserObject>
        <UserObject label="FTP (ports 20, 21)" link="https://github.com/avergnaud/as400/blob/main/docs/FTP400PC.pdf?raw=true" id="aqI84xdJ39RmTFRJNVE5-24">
          <mxCell style="rounded=1;whiteSpace=wrap;html=1;" parent="1" vertex="1">
            <mxGeometry x="480" y="1081" width="120" height="60" as="geometry" />
          </mxCell>
        </UserObject>
        <mxCell id="aqI84xdJ39RmTFRJNVE5-25" value="Accès à&amp;nbsp;/qsys.lib/*.usrprf&amp;nbsp;&lt;span style=&quot;color: rgba(0, 0, 0, 0); font-family: monospace; font-size: 0px; text-align: start; text-wrap: nowrap;&quot;&gt;%3CmxGraphModel%3E%3Croot%3E%3CmxCell%20id%3D%220%22%2F%3E%3CmxCell%20id%3D%221%22%20parent%3D%220%22%2F%3E%3CmxCell%20id%3D%222%22%20value%3D%22FTP%22%20style%3D%22rounded%3D1%3BwhiteSpace%3Dwrap%3Bhtml%3D1%3B%22%20vertex%3D%221%22%20parent%3D%221%22%3E%3CmxGeometry%20x%3D%22490%22%20y%3D%221169%22%20width%3D%22120%22%20height%3D%2260%22%20as%3D%22geometry%22%2F%3E%3C%2FmxCell%3E%3C%2Froot%3E%3C%2FmxGraphModel%3E&lt;/span&gt;" style="rounded=1;whiteSpace=wrap;html=1;" parent="1" vertex="1">
          <mxGeometry x="640" y="1081" width="120" height="60" as="geometry" />
        </mxCell>
        <UserObject label="User enum" id="aqI84xdJ39RmTFRJNVE5-26">
          <mxCell style="rounded=1;whiteSpace=wrap;html=1;" parent="1" vertex="1">
            <mxGeometry x="480" y="1720" width="120" height="60" as="geometry" />
          </mxCell>
        </UserObject>
        <UserObject label="WRKUSRPRF *ALL" id="aqI84xdJ39RmTFRJNVE5-27">
          <mxCell style="rounded=1;whiteSpace=wrap;html=1;" parent="1" vertex="1">
            <mxGeometry x="641" y="1720" width="120" height="60" as="geometry" />
          </mxCell>
        </UserObject>
        <UserObject label="weak passwords" id="aqI84xdJ39RmTFRJNVE5-28">
          <mxCell style="rounded=1;whiteSpace=wrap;html=1;" parent="1" vertex="1">
            <mxGeometry x="641" y="1800" width="120" height="60" as="geometry" />
          </mxCell>
        </UserObject>
        <UserObject label="QSYRUPWD API" link="https://www.ibm.com/docs/en/i/7.2?topic=ssw_ibm_i_72/apis/qsyrupwd.html" id="aqI84xdJ39RmTFRJNVE5-29">
          <mxCell style="rounded=1;whiteSpace=wrap;html=1;" parent="1" vertex="1">
            <mxGeometry x="800" y="1800" width="120" height="60" as="geometry" />
          </mxCell>
        </UserObject>
        <mxCell id="aqI84xdJ39RmTFRJNVE5-30" value="Telnet (ports 23, 992)" style="rounded=1;whiteSpace=wrap;html=1;" parent="1" vertex="1">
          <mxGeometry x="480" y="1160" width="120" height="60" as="geometry" />
        </mxCell>
        <mxCell id="aqI84xdJ39RmTFRJNVE5-31" value="CPF1118 message (no password)" style="rounded=1;whiteSpace=wrap;html=1;" parent="1" vertex="1">
          <mxGeometry x="800" y="1160" width="120" height="60" as="geometry" />
        </mxCell>
        <mxCell id="aqI84xdJ39RmTFRJNVE5-32" value="No-password user profiles can be used to run server or batch jobs" style="rounded=1;whiteSpace=wrap;html=1;" parent="1" vertex="1">
          <mxGeometry x="960" y="1160" width="120" height="60" as="geometry" />
        </mxCell>
        <mxCell id="aqI84xdJ39RmTFRJNVE5-33" value="HTTP (ports 80, 443)" style="rounded=1;whiteSpace=wrap;html=1;" parent="1" vertex="1">
          <mxGeometry x="480" y="1239" width="120" height="60" as="geometry" />
        </mxCell>
        <UserObject label="Path traversal" link="https://owasp.org/www-community/attacks/Path_Traversal" id="aqI84xdJ39RmTFRJNVE5-34">
          <mxCell style="rounded=1;whiteSpace=wrap;html=1;" parent="1" vertex="1">
            <mxGeometry x="800" y="1239" width="120" height="60" as="geometry" />
          </mxCell>
        </UserObject>
        <UserObject label="IBM i Access for Web&lt;div&gt;(8082)&lt;/div&gt;" link="https://github.com/avergnaud/as400/blob/main/docs/rzamm.pdf?raw=true" id="fhVOCeMNc6bVe-KWatDS-1">
          <mxCell style="rounded=1;whiteSpace=wrap;html=1;" parent="1" vertex="1">
            <mxGeometry x="640" y="1239" width="120" height="60" as="geometry" />
          </mxCell>
        </UserObject>
        <mxCell id="fhVOCeMNc6bVe-KWatDS-2" value="Programmes d&#39;exit" style="rounded=1;whiteSpace=wrap;html=1;" parent="1" vertex="1">
          <mxGeometry x="320" y="202" width="120" height="60" as="geometry" />
        </mxCell>
        <mxCell id="fhVOCeMNc6bVe-KWatDS-3" value="Commandes à distance / Appel de programmes" style="rounded=1;whiteSpace=wrap;html=1;" parent="1" vertex="1">
          <mxGeometry x="800" y="1320" width="120" height="60" as="geometry" />
        </mxCell>
        <mxCell id="fhVOCeMNc6bVe-KWatDS-4" value="POP3 (ports 110, 910)" style="rounded=1;whiteSpace=wrap;html=1;" parent="1" vertex="1">
          <mxGeometry x="480" y="1399" width="120" height="60" as="geometry" />
        </mxCell>
        <UserObject label="Codes d&#39;erreurs" link="https://raw.githubusercontent.com/avergnaud/as400/main/docs/Pentest_AS400_COGICEO.pdf" id="fhVOCeMNc6bVe-KWatDS-5">
          <mxCell style="rounded=1;whiteSpace=wrap;html=1;" parent="1" vertex="1">
            <mxGeometry x="640" y="1399" width="120" height="60" as="geometry" />
          </mxCell>
        </UserObject>
        <mxCell id="fhVOCeMNc6bVe-KWatDS-6" value="CPF22E5 : No password associated with user profile" style="rounded=1;whiteSpace=wrap;html=1;" parent="1" vertex="1">
          <mxGeometry x="800" y="1399" width="120" height="60" as="geometry" />
        </mxCell>
        <mxCell id="fhVOCeMNc6bVe-KWatDS-8" value="Codes d&#39;erreurs" style="rounded=1;whiteSpace=wrap;html=1;" parent="1" vertex="1">
          <mxGeometry x="640" y="1160" width="120" height="60" as="geometry" />
        </mxCell>
        <mxCell id="fhVOCeMNc6bVe-KWatDS-9" value="No-password user profiles can be used to run server or batch jobs" style="rounded=1;whiteSpace=wrap;html=1;" parent="1" vertex="1">
          <mxGeometry x="960" y="1399" width="120" height="60" as="geometry" />
        </mxCell>
        <UserObject label="passwords equal to ids" id="fhVOCeMNc6bVe-KWatDS-10">
          <mxCell style="rounded=1;whiteSpace=wrap;html=1;" parent="1" vertex="1">
            <mxGeometry x="640" y="1880" width="120" height="60" as="geometry" />
          </mxCell>
        </UserObject>
        <UserObject label="&lt;div&gt;NetServer (ports&amp;nbsp;137, 138, 139, 445)&lt;/div&gt;" link="https://www.volubis.fr/news/liens/courshtm/netserver.htm" id="fhVOCeMNc6bVe-KWatDS-12">
          <mxCell style="rounded=1;whiteSpace=wrap;html=1;" parent="1" vertex="1">
            <mxGeometry x="480" y="1479" width="120" height="60" as="geometry" />
          </mxCell>
        </UserObject>
        <mxCell id="fhVOCeMNc6bVe-KWatDS-13" value="Accès au filesystem depuis un poste Windows" style="rounded=1;whiteSpace=wrap;html=1;" parent="1" vertex="1">
          <mxGeometry x="641" y="1479" width="120" height="60" as="geometry" />
        </mxCell>
        <UserObject label="Accès à&amp;nbsp;System i Navigator" link="https://www.volubis.fr/news/liens/courshtm/opnav_dev.htm" id="W1Z3jp5pD68HIRzO2V5Z-1">
          <mxCell style="rounded=1;whiteSpace=wrap;html=1;" parent="1" vertex="1">
            <mxGeometry x="640" y="1964" width="120" height="60" as="geometry" />
          </mxCell>
        </UserObject>
        <UserObject label="&lt;div&gt;LDAP (ports 389, 636)&lt;/div&gt;" link="https://www.volubis.fr/news/liens/courshtm/LDAP.htm" id="W1Z3jp5pD68HIRzO2V5Z-2">
          <mxCell style="rounded=1;whiteSpace=wrap;html=1;" parent="1" vertex="1">
            <mxGeometry x="640" y="2040" width="120" height="60" as="geometry" />
          </mxCell>
        </UserObject>
        <UserObject label="ldapsearch" id="W1Z3jp5pD68HIRzO2V5Z-3">
          <mxCell style="rounded=1;whiteSpace=wrap;html=1;" parent="1" vertex="1">
            <mxGeometry x="800" y="2040" width="120" height="60" as="geometry" />
          </mxCell>
        </UserObject>
        <UserObject label="&lt;div&gt;Autres, cf lien...&lt;/div&gt;" link="https://github.com/avergnaud/as400/blob/main/docs/Pentest_AS400_COGICEO.pdf?raw=true" id="W1Z3jp5pD68HIRzO2V5Z-4">
          <mxCell style="rounded=1;whiteSpace=wrap;html=1;" parent="1" vertex="1">
            <mxGeometry x="480" y="1560" width="120" height="60" as="geometry" />
          </mxCell>
        </UserObject>
        <UserObject label="Bruteforce identifiants par défaut" id="W1Z3jp5pD68HIRzO2V5Z-5">
          <mxCell style="rounded=1;whiteSpace=wrap;html=1;" parent="1" vertex="1">
            <mxGeometry x="641" y="2120" width="120" height="60" as="geometry" />
          </mxCell>
        </UserObject>
        <UserObject label="&lt;div&gt;Liste : cf lien...&lt;/div&gt;" link="https://github.com/avergnaud/as400/blob/main/docs/Pentest_AS400_COGICEO.pdf?raw=true" id="W1Z3jp5pD68HIRzO2V5Z-6">
          <mxCell style="rounded=1;whiteSpace=wrap;html=1;" parent="1" vertex="1">
            <mxGeometry x="800" y="2120" width="120" height="60" as="geometry" />
          </mxCell>
        </UserObject>
        <UserObject label="System i Navigator" id="W1Z3jp5pD68HIRzO2V5Z-7">
          <mxCell style="rounded=1;whiteSpace=wrap;html=1;" parent="1" vertex="1">
            <mxGeometry x="320" y="283" width="120" height="60" as="geometry" />
          </mxCell>
        </UserObject>
        <UserObject label="Verrouillage de comptes" link="https://raw.githubusercontent.com/avergnaud/as400/main/docs/Pentest_AS400_COGICEO.pdf" id="W1Z3jp5pD68HIRzO2V5Z-8">
          <mxCell style="rounded=1;whiteSpace=wrap;html=1;" parent="1" vertex="1">
            <mxGeometry x="480" y="283" width="120" height="60" as="geometry" />
          </mxCell>
        </UserObject>
        <UserObject label="Complexité des mots de passes" link="https://raw.githubusercontent.com/avergnaud/as400/main/docs/Pentest_AS400_COGICEO.pdf" id="W1Z3jp5pD68HIRzO2V5Z-9">
          <mxCell style="rounded=1;whiteSpace=wrap;html=1;" parent="1" vertex="1">
            <mxGeometry x="480" y="360" width="120" height="60" as="geometry" />
          </mxCell>
        </UserObject>
        <mxCell id="W1Z3jp5pD68HIRzO2V5Z-10" value="Exécution de commandes" style="rounded=1;whiteSpace=wrap;html=1;" parent="1" vertex="1">
          <mxGeometry x="320" y="2281" width="120" height="60" as="geometry" />
        </mxCell>
        <UserObject label="Par FTP" link="https://raw.githubusercontent.com/avergnaud/as400/main/docs/Pentest_AS400_COGICEO.pdf" id="W1Z3jp5pD68HIRzO2V5Z-11">
          <mxCell style="rounded=1;whiteSpace=wrap;html=1;" parent="1" vertex="1">
            <mxGeometry x="480" y="2281" width="120" height="60" as="geometry" />
          </mxCell>
        </UserObject>
        <UserObject label="Par REXEC" link="https://raw.githubusercontent.com/avergnaud/as400/main/docs/Pentest_AS400_COGICEO.pdf" id="W1Z3jp5pD68HIRzO2V5Z-12">
          <mxCell style="rounded=1;whiteSpace=wrap;html=1;" parent="1" vertex="1">
            <mxGeometry x="480" y="2359" width="120" height="60" as="geometry" />
          </mxCell>
        </UserObject>
        <UserObject label="Par remote command rmtcmd" link="https://raw.githubusercontent.com/avergnaud/as400/main/docs/Pentest_AS400_COGICEO.pdf" id="W1Z3jp5pD68HIRzO2V5Z-13">
          <mxCell style="rounded=1;whiteSpace=wrap;html=1;" parent="1" vertex="1">
            <mxGeometry x="480" y="2440" width="120" height="60" as="geometry" />
          </mxCell>
        </UserObject>
        <UserObject label="Par DB2 (CALL QCMDEXC)" link="https://raw.githubusercontent.com/avergnaud/as400/main/docs/Pentest_AS400_COGICEO.pdf" id="W1Z3jp5pD68HIRzO2V5Z-14">
          <mxCell style="rounded=1;whiteSpace=wrap;html=1;" parent="1" vertex="1">
            <mxGeometry x="480" y="2520" width="120" height="60" as="geometry" />
          </mxCell>
        </UserObject>
        <UserObject label="Par terminal TN5250" link="https://www.microfocus.com/documentation/extra/9-6/user-guide-fr/sessions-5250-ch.htm" id="W1Z3jp5pD68HIRzO2V5Z-15">
          <mxCell style="rounded=1;whiteSpace=wrap;html=1;" parent="1" vertex="1">
            <mxGeometry x="480" y="2600" width="120" height="60" as="geometry" />
          </mxCell>
        </UserObject>
        <UserObject label="Par interface web 8082" id="W1Z3jp5pD68HIRzO2V5Z-16">
          <mxCell style="rounded=1;whiteSpace=wrap;html=1;" parent="1" vertex="1">
            <mxGeometry x="480" y="2680" width="120" height="60" as="geometry" />
          </mxCell>
        </UserObject>
        <UserObject label="Par SSH" link="https://raw.githubusercontent.com/avergnaud/as400/main/docs/Pentest_AS400_COGICEO.pdf" id="W1Z3jp5pD68HIRzO2V5Z-17">
          <mxCell style="rounded=1;whiteSpace=wrap;html=1;" parent="1" vertex="1">
            <mxGeometry x="480" y="2760" width="120" height="60" as="geometry" />
          </mxCell>
        </UserObject>
        <UserObject label="Par shell PASE" link="https://raw.githubusercontent.com/avergnaud/as400/main/docs/Pentest_AS400_COGICEO.pdf" id="W1Z3jp5pD68HIRzO2V5Z-18">
          <mxCell style="rounded=1;whiteSpace=wrap;html=1;" parent="1" vertex="1">
            <mxGeometry x="480" y="2841" width="120" height="60" as="geometry" />
          </mxCell>
        </UserObject>
        <mxCell id="W1Z3jp5pD68HIRzO2V5Z-19" value="Priv esc" style="rounded=1;whiteSpace=wrap;html=1;" parent="1" vertex="1">
          <mxGeometry x="320" y="2921" width="120" height="60" as="geometry" />
        </mxCell>
        <UserObject label="Recherche de droit EXECUTE sur les users" link="https://raw.githubusercontent.com/avergnaud/as400/main/docs/Pentest_AS400_COGICEO.pdf" id="W1Z3jp5pD68HIRzO2V5Z-20">
          <mxCell style="rounded=1;whiteSpace=wrap;html=1;" parent="1" vertex="1">
            <mxGeometry x="480" y="2921" width="120" height="60" as="geometry" />
          </mxCell>
        </UserObject>
        <UserObject label="Recherche de profil *USE sur les users" link="https://raw.githubusercontent.com/avergnaud/as400/main/docs/Pentest_AS400_COGICEO.pdf" id="W1Z3jp5pD68HIRzO2V5Z-21">
          <mxCell style="rounded=1;whiteSpace=wrap;html=1;" parent="1" vertex="1">
            <mxGeometry x="480" y="2999.5" width="120" height="60" as="geometry" />
          </mxCell>
        </UserObject>
        <UserObject label="&lt;div&gt;Python client testing default creds&lt;/div&gt;" link="https://github.com/avergnaud/pentest_as400/tree/master/as400" id="W1Z3jp5pD68HIRzO2V5Z-22">
          <mxCell style="rounded=1;whiteSpace=wrap;html=1;" parent="1" vertex="1">
            <mxGeometry x="800" y="2200" width="120" height="60" as="geometry" />
          </mxCell>
        </UserObject>
        <mxCell id="W1Z3jp5pD68HIRzO2V5Z-23" value="" style="endArrow=none;html=1;rounded=0;exitX=1;exitY=0.5;exitDx=0;exitDy=0;" parent="1" source="aqI84xdJ39RmTFRJNVE5-1" target="aqI84xdJ39RmTFRJNVE5-3" edge="1">
          <mxGeometry width="50" height="50" relative="1" as="geometry">
            <mxPoint x="480" y="200" as="sourcePoint" />
            <mxPoint x="530" y="150" as="targetPoint" />
          </mxGeometry>
        </mxCell>
        <mxCell id="W1Z3jp5pD68HIRzO2V5Z-24" value="" style="endArrow=none;html=1;rounded=0;exitX=1;exitY=0.5;exitDx=0;exitDy=0;" parent="1" source="aqI84xdJ39RmTFRJNVE5-3" target="aqI84xdJ39RmTFRJNVE5-4" edge="1">
          <mxGeometry width="50" height="50" relative="1" as="geometry">
            <mxPoint x="480" y="200" as="sourcePoint" />
            <mxPoint x="530" y="150" as="targetPoint" />
          </mxGeometry>
        </mxCell>
        <mxCell id="W1Z3jp5pD68HIRzO2V5Z-25" value="" style="endArrow=none;html=1;rounded=0;exitX=1;exitY=0.5;exitDx=0;exitDy=0;entryX=0;entryY=0.5;entryDx=0;entryDy=0;" parent="1" source="aqI84xdJ39RmTFRJNVE5-3" target="aqI84xdJ39RmTFRJNVE5-5" edge="1">
          <mxGeometry width="50" height="50" relative="1" as="geometry">
            <mxPoint x="480" y="200" as="sourcePoint" />
            <mxPoint x="530" y="150" as="targetPoint" />
          </mxGeometry>
        </mxCell>
        <mxCell id="W1Z3jp5pD68HIRzO2V5Z-26" value="" style="endArrow=none;html=1;rounded=0;exitX=1;exitY=0.5;exitDx=0;exitDy=0;entryX=0;entryY=0.5;entryDx=0;entryDy=0;" parent="1" source="aqI84xdJ39RmTFRJNVE5-1" target="fhVOCeMNc6bVe-KWatDS-2" edge="1">
          <mxGeometry width="50" height="50" relative="1" as="geometry">
            <mxPoint x="480" y="270" as="sourcePoint" />
            <mxPoint x="530" y="220" as="targetPoint" />
          </mxGeometry>
        </mxCell>
        <mxCell id="W1Z3jp5pD68HIRzO2V5Z-27" value="" style="endArrow=none;html=1;rounded=0;exitX=1;exitY=0.5;exitDx=0;exitDy=0;entryX=0;entryY=0.5;entryDx=0;entryDy=0;" parent="1" source="aqI84xdJ39RmTFRJNVE5-1" target="W1Z3jp5pD68HIRzO2V5Z-7" edge="1">
          <mxGeometry width="50" height="50" relative="1" as="geometry">
            <mxPoint x="270" y="85" as="sourcePoint" />
            <mxPoint x="330" y="242" as="targetPoint" />
          </mxGeometry>
        </mxCell>
        <mxCell id="W1Z3jp5pD68HIRzO2V5Z-28" value="" style="endArrow=none;html=1;rounded=0;exitX=1;exitY=0.5;exitDx=0;exitDy=0;" parent="1" source="W1Z3jp5pD68HIRzO2V5Z-7" target="W1Z3jp5pD68HIRzO2V5Z-8" edge="1">
          <mxGeometry width="50" height="50" relative="1" as="geometry">
            <mxPoint x="480" y="270" as="sourcePoint" />
            <mxPoint x="530" y="220" as="targetPoint" />
          </mxGeometry>
        </mxCell>
        <mxCell id="W1Z3jp5pD68HIRzO2V5Z-29" value="" style="endArrow=none;html=1;rounded=0;exitX=1;exitY=0.5;exitDx=0;exitDy=0;entryX=0;entryY=0.5;entryDx=0;entryDy=0;" parent="1" source="W1Z3jp5pD68HIRzO2V5Z-7" target="W1Z3jp5pD68HIRzO2V5Z-9" edge="1">
          <mxGeometry width="50" height="50" relative="1" as="geometry">
            <mxPoint x="480" y="330" as="sourcePoint" />
            <mxPoint x="530" y="280" as="targetPoint" />
          </mxGeometry>
        </mxCell>
        <mxCell id="W1Z3jp5pD68HIRzO2V5Z-30" value="" style="endArrow=none;html=1;rounded=0;exitX=1;exitY=0.5;exitDx=0;exitDy=0;entryX=0;entryY=0.5;entryDx=0;entryDy=0;" parent="1" source="aqI84xdJ39RmTFRJNVE5-2" target="aqI84xdJ39RmTFRJNVE5-6" edge="1">
          <mxGeometry width="50" height="50" relative="1" as="geometry">
            <mxPoint x="480" y="530" as="sourcePoint" />
            <mxPoint x="530" y="480" as="targetPoint" />
          </mxGeometry>
        </mxCell>
        <mxCell id="W1Z3jp5pD68HIRzO2V5Z-31" value="" style="endArrow=none;html=1;rounded=0;exitX=1;exitY=0.5;exitDx=0;exitDy=0;entryX=0;entryY=0.5;entryDx=0;entryDy=0;" parent="1" source="aqI84xdJ39RmTFRJNVE5-2" target="aqI84xdJ39RmTFRJNVE5-7" edge="1">
          <mxGeometry width="50" height="50" relative="1" as="geometry">
            <mxPoint x="480" y="530" as="sourcePoint" />
            <mxPoint x="530" y="480" as="targetPoint" />
          </mxGeometry>
        </mxCell>
        <mxCell id="W1Z3jp5pD68HIRzO2V5Z-32" value="" style="endArrow=none;html=1;rounded=0;exitX=1;exitY=0.5;exitDx=0;exitDy=0;" parent="1" source="aqI84xdJ39RmTFRJNVE5-7" target="aqI84xdJ39RmTFRJNVE5-8" edge="1">
          <mxGeometry width="50" height="50" relative="1" as="geometry">
            <mxPoint x="670" y="600" as="sourcePoint" />
            <mxPoint x="720" y="550" as="targetPoint" />
          </mxGeometry>
        </mxCell>
        <mxCell id="W1Z3jp5pD68HIRzO2V5Z-36" value="" style="endArrow=none;html=1;rounded=0;exitX=1;exitY=0.5;exitDx=0;exitDy=0;entryX=0;entryY=0.5;entryDx=0;entryDy=0;" parent="1" source="aqI84xdJ39RmTFRJNVE5-2" target="aqI84xdJ39RmTFRJNVE5-12" edge="1">
          <mxGeometry width="50" height="50" relative="1" as="geometry">
            <mxPoint x="400" y="670" as="sourcePoint" />
            <mxPoint x="450" y="620" as="targetPoint" />
          </mxGeometry>
        </mxCell>
        <mxCell id="W1Z3jp5pD68HIRzO2V5Z-37" value="" style="endArrow=none;html=1;rounded=0;entryX=0;entryY=0.5;entryDx=0;entryDy=0;" parent="1" source="aqI84xdJ39RmTFRJNVE5-12" target="aqI84xdJ39RmTFRJNVE5-13" edge="1">
          <mxGeometry width="50" height="50" relative="1" as="geometry">
            <mxPoint x="400" y="870" as="sourcePoint" />
            <mxPoint x="450" y="820" as="targetPoint" />
          </mxGeometry>
        </mxCell>
        <mxCell id="W1Z3jp5pD68HIRzO2V5Z-38" value="" style="endArrow=none;html=1;rounded=0;exitX=1;exitY=0.5;exitDx=0;exitDy=0;entryX=0;entryY=0.5;entryDx=0;entryDy=0;" parent="1" source="aqI84xdJ39RmTFRJNVE5-12" target="aqI84xdJ39RmTFRJNVE5-15" edge="1">
          <mxGeometry width="50" height="50" relative="1" as="geometry">
            <mxPoint x="690" y="870" as="sourcePoint" />
            <mxPoint x="740" y="820" as="targetPoint" />
          </mxGeometry>
        </mxCell>
        <mxCell id="W1Z3jp5pD68HIRzO2V5Z-39" value="" style="endArrow=none;html=1;rounded=0;exitX=1;exitY=0.5;exitDx=0;exitDy=0;" parent="1" source="aqI84xdJ39RmTFRJNVE5-15" target="aqI84xdJ39RmTFRJNVE5-23" edge="1">
          <mxGeometry width="50" height="50" relative="1" as="geometry">
            <mxPoint x="690" y="870" as="sourcePoint" />
            <mxPoint x="740" y="820" as="targetPoint" />
          </mxGeometry>
        </mxCell>
        <mxCell id="W1Z3jp5pD68HIRzO2V5Z-40" value="" style="endArrow=none;html=1;rounded=0;entryX=0;entryY=0.5;entryDx=0;entryDy=0;exitX=1;exitY=0.5;exitDx=0;exitDy=0;" parent="1" source="aqI84xdJ39RmTFRJNVE5-8" target="aqI84xdJ39RmTFRJNVE5-9" edge="1">
          <mxGeometry width="50" height="50" relative="1" as="geometry">
            <mxPoint x="730" y="600" as="sourcePoint" />
            <mxPoint x="780" y="550" as="targetPoint" />
          </mxGeometry>
        </mxCell>
        <mxCell id="W1Z3jp5pD68HIRzO2V5Z-41" value="" style="endArrow=none;html=1;rounded=0;entryX=0;entryY=0.5;entryDx=0;entryDy=0;" parent="1" source="aqI84xdJ39RmTFRJNVE5-9" target="aqI84xdJ39RmTFRJNVE5-10" edge="1">
          <mxGeometry width="50" height="50" relative="1" as="geometry">
            <mxPoint x="730" y="600" as="sourcePoint" />
            <mxPoint x="780" y="550" as="targetPoint" />
          </mxGeometry>
        </mxCell>
        <mxCell id="W1Z3jp5pD68HIRzO2V5Z-42" value="" style="endArrow=none;html=1;rounded=0;entryX=0;entryY=0.5;entryDx=0;entryDy=0;exitX=1;exitY=0.5;exitDx=0;exitDy=0;" parent="1" source="aqI84xdJ39RmTFRJNVE5-9" target="aqI84xdJ39RmTFRJNVE5-11" edge="1">
          <mxGeometry width="50" height="50" relative="1" as="geometry">
            <mxPoint x="730" y="624" as="sourcePoint" />
            <mxPoint x="780" y="574" as="targetPoint" />
          </mxGeometry>
        </mxCell>
        <mxCell id="W1Z3jp5pD68HIRzO2V5Z-43" value="" style="endArrow=none;html=1;rounded=0;exitX=1;exitY=0.5;exitDx=0;exitDy=0;" parent="1" source="aqI84xdJ39RmTFRJNVE5-19" target="aqI84xdJ39RmTFRJNVE5-20" edge="1">
          <mxGeometry width="50" height="50" relative="1" as="geometry">
            <mxPoint x="730" y="950" as="sourcePoint" />
            <mxPoint x="780" y="900" as="targetPoint" />
          </mxGeometry>
        </mxCell>
        <mxCell id="W1Z3jp5pD68HIRzO2V5Z-44" value="" style="endArrow=none;html=1;rounded=0;exitX=1;exitY=0.5;exitDx=0;exitDy=0;" parent="1" source="aqI84xdJ39RmTFRJNVE5-21" target="aqI84xdJ39RmTFRJNVE5-22" edge="1">
          <mxGeometry width="50" height="50" relative="1" as="geometry">
            <mxPoint x="730" y="1190" as="sourcePoint" />
            <mxPoint x="780" y="1140" as="targetPoint" />
          </mxGeometry>
        </mxCell>
        <mxCell id="W1Z3jp5pD68HIRzO2V5Z-45" value="" style="endArrow=none;html=1;rounded=0;exitX=1;exitY=0.5;exitDx=0;exitDy=0;" parent="1" source="aqI84xdJ39RmTFRJNVE5-24" target="aqI84xdJ39RmTFRJNVE5-25" edge="1">
          <mxGeometry width="50" height="50" relative="1" as="geometry">
            <mxPoint x="730" y="1190" as="sourcePoint" />
            <mxPoint x="780" y="1140" as="targetPoint" />
          </mxGeometry>
        </mxCell>
        <mxCell id="W1Z3jp5pD68HIRzO2V5Z-46" value="" style="endArrow=none;html=1;rounded=0;exitX=1;exitY=0.5;exitDx=0;exitDy=0;" parent="1" source="aqI84xdJ39RmTFRJNVE5-30" target="fhVOCeMNc6bVe-KWatDS-8" edge="1">
          <mxGeometry width="50" height="50" relative="1" as="geometry">
            <mxPoint x="730" y="1190" as="sourcePoint" />
            <mxPoint x="780" y="1140" as="targetPoint" />
          </mxGeometry>
        </mxCell>
        <mxCell id="W1Z3jp5pD68HIRzO2V5Z-47" value="" style="endArrow=none;html=1;rounded=0;entryX=0;entryY=0.5;entryDx=0;entryDy=0;exitX=1;exitY=0.5;exitDx=0;exitDy=0;" parent="1" source="fhVOCeMNc6bVe-KWatDS-8" target="aqI84xdJ39RmTFRJNVE5-31" edge="1">
          <mxGeometry width="50" height="50" relative="1" as="geometry">
            <mxPoint x="730" y="1190" as="sourcePoint" />
            <mxPoint x="780" y="1140" as="targetPoint" />
          </mxGeometry>
        </mxCell>
        <mxCell id="W1Z3jp5pD68HIRzO2V5Z-48" value="" style="endArrow=none;html=1;rounded=0;entryX=0;entryY=0.5;entryDx=0;entryDy=0;" parent="1" target="aqI84xdJ39RmTFRJNVE5-32" edge="1">
          <mxGeometry width="50" height="50" relative="1" as="geometry">
            <mxPoint x="920" y="1190" as="sourcePoint" />
            <mxPoint x="780" y="1140" as="targetPoint" />
          </mxGeometry>
        </mxCell>
        <mxCell id="W1Z3jp5pD68HIRzO2V5Z-49" value="" style="endArrow=none;html=1;rounded=0;exitX=1;exitY=0.5;exitDx=0;exitDy=0;" parent="1" source="aqI84xdJ39RmTFRJNVE5-33" target="fhVOCeMNc6bVe-KWatDS-1" edge="1">
          <mxGeometry width="50" height="50" relative="1" as="geometry">
            <mxPoint x="730" y="1310" as="sourcePoint" />
            <mxPoint x="780" y="1260" as="targetPoint" />
          </mxGeometry>
        </mxCell>
        <mxCell id="W1Z3jp5pD68HIRzO2V5Z-50" value="" style="endArrow=none;html=1;rounded=0;entryX=0;entryY=0.5;entryDx=0;entryDy=0;exitX=1;exitY=0.5;exitDx=0;exitDy=0;" parent="1" source="fhVOCeMNc6bVe-KWatDS-1" target="aqI84xdJ39RmTFRJNVE5-34" edge="1">
          <mxGeometry width="50" height="50" relative="1" as="geometry">
            <mxPoint x="730" y="1310" as="sourcePoint" />
            <mxPoint x="780" y="1260" as="targetPoint" />
          </mxGeometry>
        </mxCell>
        <mxCell id="W1Z3jp5pD68HIRzO2V5Z-53" value="" style="endArrow=none;html=1;rounded=0;entryX=0;entryY=0.5;entryDx=0;entryDy=0;exitX=1;exitY=0.5;exitDx=0;exitDy=0;" parent="1" source="fhVOCeMNc6bVe-KWatDS-1" target="fhVOCeMNc6bVe-KWatDS-3" edge="1">
          <mxGeometry width="50" height="50" relative="1" as="geometry">
            <mxPoint x="730" y="1540" as="sourcePoint" />
            <mxPoint x="780" y="1490" as="targetPoint" />
          </mxGeometry>
        </mxCell>
        <mxCell id="W1Z3jp5pD68HIRzO2V5Z-54" value="" style="endArrow=none;html=1;rounded=0;exitX=1;exitY=0.5;exitDx=0;exitDy=0;" parent="1" source="aqI84xdJ39RmTFRJNVE5-16" target="aqI84xdJ39RmTFRJNVE5-17" edge="1">
          <mxGeometry width="50" height="50" relative="1" as="geometry">
            <mxPoint x="730" y="1540" as="sourcePoint" />
            <mxPoint x="780" y="1490" as="targetPoint" />
          </mxGeometry>
        </mxCell>
        <mxCell id="W1Z3jp5pD68HIRzO2V5Z-55" value="" style="endArrow=none;html=1;rounded=0;exitX=1;exitY=0.5;exitDx=0;exitDy=0;entryX=0;entryY=0.5;entryDx=0;entryDy=0;" parent="1" source="aqI84xdJ39RmTFRJNVE5-12" target="aqI84xdJ39RmTFRJNVE5-19" edge="1">
          <mxGeometry width="50" height="50" relative="1" as="geometry">
            <mxPoint x="730" y="1070" as="sourcePoint" />
            <mxPoint x="780" y="1020" as="targetPoint" />
          </mxGeometry>
        </mxCell>
        <mxCell id="W1Z3jp5pD68HIRzO2V5Z-56" value="" style="endArrow=none;html=1;rounded=0;exitX=1;exitY=0.5;exitDx=0;exitDy=0;entryX=0;entryY=0.5;entryDx=0;entryDy=0;" parent="1" source="aqI84xdJ39RmTFRJNVE5-12" target="aqI84xdJ39RmTFRJNVE5-21" edge="1">
          <mxGeometry width="50" height="50" relative="1" as="geometry">
            <mxPoint x="730" y="1070" as="sourcePoint" />
            <mxPoint x="780" y="1020" as="targetPoint" />
          </mxGeometry>
        </mxCell>
        <mxCell id="W1Z3jp5pD68HIRzO2V5Z-57" value="" style="endArrow=none;html=1;rounded=0;entryX=0;entryY=0.5;entryDx=0;entryDy=0;" parent="1" target="aqI84xdJ39RmTFRJNVE5-24" edge="1">
          <mxGeometry width="50" height="50" relative="1" as="geometry">
            <mxPoint x="440" y="790" as="sourcePoint" />
            <mxPoint x="400" y="1040" as="targetPoint" />
          </mxGeometry>
        </mxCell>
        <mxCell id="W1Z3jp5pD68HIRzO2V5Z-58" value="" style="endArrow=none;html=1;rounded=0;entryX=1;entryY=0.5;entryDx=0;entryDy=0;exitX=0;exitY=0.5;exitDx=0;exitDy=0;" parent="1" source="aqI84xdJ39RmTFRJNVE5-30" target="aqI84xdJ39RmTFRJNVE5-12" edge="1">
          <mxGeometry width="50" height="50" relative="1" as="geometry">
            <mxPoint x="730" y="1070" as="sourcePoint" />
            <mxPoint x="780" y="1020" as="targetPoint" />
          </mxGeometry>
        </mxCell>
        <mxCell id="W1Z3jp5pD68HIRzO2V5Z-59" value="" style="endArrow=none;html=1;rounded=0;entryX=1;entryY=0.5;entryDx=0;entryDy=0;exitX=0;exitY=0.5;exitDx=0;exitDy=0;" parent="1" source="aqI84xdJ39RmTFRJNVE5-33" target="aqI84xdJ39RmTFRJNVE5-12" edge="1">
          <mxGeometry width="50" height="50" relative="1" as="geometry">
            <mxPoint x="730" y="1070" as="sourcePoint" />
            <mxPoint x="780" y="1020" as="targetPoint" />
          </mxGeometry>
        </mxCell>
        <mxCell id="W1Z3jp5pD68HIRzO2V5Z-60" value="" style="endArrow=none;html=1;rounded=0;entryX=1;entryY=0.5;entryDx=0;entryDy=0;exitX=0;exitY=0.5;exitDx=0;exitDy=0;" parent="1" source="fhVOCeMNc6bVe-KWatDS-4" target="aqI84xdJ39RmTFRJNVE5-12" edge="1">
          <mxGeometry width="50" height="50" relative="1" as="geometry">
            <mxPoint x="730" y="1190" as="sourcePoint" />
            <mxPoint x="780" y="1140" as="targetPoint" />
          </mxGeometry>
        </mxCell>
        <mxCell id="W1Z3jp5pD68HIRzO2V5Z-61" value="" style="endArrow=none;html=1;rounded=0;entryX=1;entryY=0.5;entryDx=0;entryDy=0;exitX=0;exitY=0.5;exitDx=0;exitDy=0;" parent="1" source="fhVOCeMNc6bVe-KWatDS-12" target="aqI84xdJ39RmTFRJNVE5-12" edge="1">
          <mxGeometry width="50" height="50" relative="1" as="geometry">
            <mxPoint x="730" y="1310" as="sourcePoint" />
            <mxPoint x="360" y="1080" as="targetPoint" />
          </mxGeometry>
        </mxCell>
        <mxCell id="W1Z3jp5pD68HIRzO2V5Z-62" value="" style="endArrow=none;html=1;rounded=0;exitX=1;exitY=0.5;exitDx=0;exitDy=0;" parent="1" source="fhVOCeMNc6bVe-KWatDS-4" target="fhVOCeMNc6bVe-KWatDS-5" edge="1">
          <mxGeometry width="50" height="50" relative="1" as="geometry">
            <mxPoint x="730" y="1540" as="sourcePoint" />
            <mxPoint x="780" y="1490" as="targetPoint" />
          </mxGeometry>
        </mxCell>
        <mxCell id="W1Z3jp5pD68HIRzO2V5Z-63" value="" style="endArrow=none;html=1;rounded=0;exitX=1;exitY=0.5;exitDx=0;exitDy=0;" parent="1" source="fhVOCeMNc6bVe-KWatDS-5" target="fhVOCeMNc6bVe-KWatDS-6" edge="1">
          <mxGeometry width="50" height="50" relative="1" as="geometry">
            <mxPoint x="730" y="1540" as="sourcePoint" />
            <mxPoint x="780" y="1490" as="targetPoint" />
          </mxGeometry>
        </mxCell>
        <mxCell id="W1Z3jp5pD68HIRzO2V5Z-64" value="" style="endArrow=none;html=1;rounded=0;entryX=0;entryY=0.5;entryDx=0;entryDy=0;exitX=1;exitY=0.5;exitDx=0;exitDy=0;" parent="1" source="fhVOCeMNc6bVe-KWatDS-6" target="fhVOCeMNc6bVe-KWatDS-9" edge="1">
          <mxGeometry width="50" height="50" relative="1" as="geometry">
            <mxPoint x="730" y="1540" as="sourcePoint" />
            <mxPoint x="780" y="1490" as="targetPoint" />
          </mxGeometry>
        </mxCell>
        <mxCell id="W1Z3jp5pD68HIRzO2V5Z-65" value="" style="endArrow=none;html=1;rounded=0;exitX=1;exitY=0.5;exitDx=0;exitDy=0;" parent="1" source="fhVOCeMNc6bVe-KWatDS-12" target="fhVOCeMNc6bVe-KWatDS-13" edge="1">
          <mxGeometry width="50" height="50" relative="1" as="geometry">
            <mxPoint x="730" y="1540" as="sourcePoint" />
            <mxPoint x="780" y="1490" as="targetPoint" />
          </mxGeometry>
        </mxCell>
        <mxCell id="W1Z3jp5pD68HIRzO2V5Z-66" value="" style="endArrow=none;html=1;rounded=0;exitX=1;exitY=0.5;exitDx=0;exitDy=0;entryX=0;entryY=0.5;entryDx=0;entryDy=0;" parent="1" source="aqI84xdJ39RmTFRJNVE5-12" target="W1Z3jp5pD68HIRzO2V5Z-4" edge="1">
          <mxGeometry width="50" height="50" relative="1" as="geometry">
            <mxPoint x="730" y="1070" as="sourcePoint" />
            <mxPoint x="780" y="1020" as="targetPoint" />
          </mxGeometry>
        </mxCell>
        <mxCell id="W1Z3jp5pD68HIRzO2V5Z-67" value="" style="endArrow=none;html=1;rounded=0;entryX=0;entryY=0.5;entryDx=0;entryDy=0;exitX=1;exitY=0.5;exitDx=0;exitDy=0;" parent="1" source="aqI84xdJ39RmTFRJNVE5-16" target="aqI84xdJ39RmTFRJNVE5-26" edge="1">
          <mxGeometry width="50" height="50" relative="1" as="geometry">
            <mxPoint x="730" y="1720" as="sourcePoint" />
            <mxPoint x="780" y="1670" as="targetPoint" />
          </mxGeometry>
        </mxCell>
        <mxCell id="W1Z3jp5pD68HIRzO2V5Z-68" value="" style="endArrow=none;html=1;rounded=0;exitX=1;exitY=0.5;exitDx=0;exitDy=0;" parent="1" source="aqI84xdJ39RmTFRJNVE5-26" target="aqI84xdJ39RmTFRJNVE5-27" edge="1">
          <mxGeometry width="50" height="50" relative="1" as="geometry">
            <mxPoint x="730" y="1840" as="sourcePoint" />
            <mxPoint x="780" y="1790" as="targetPoint" />
          </mxGeometry>
        </mxCell>
        <mxCell id="W1Z3jp5pD68HIRzO2V5Z-69" value="" style="endArrow=none;html=1;rounded=0;exitX=1;exitY=0.5;exitDx=0;exitDy=0;entryX=0;entryY=0.5;entryDx=0;entryDy=0;" parent="1" source="aqI84xdJ39RmTFRJNVE5-26" target="aqI84xdJ39RmTFRJNVE5-28" edge="1">
          <mxGeometry width="50" height="50" relative="1" as="geometry">
            <mxPoint x="730" y="1950" as="sourcePoint" />
            <mxPoint x="780" y="1900" as="targetPoint" />
          </mxGeometry>
        </mxCell>
        <mxCell id="W1Z3jp5pD68HIRzO2V5Z-70" value="" style="endArrow=none;html=1;rounded=0;entryX=0;entryY=0.5;entryDx=0;entryDy=0;exitX=1;exitY=0.5;exitDx=0;exitDy=0;" parent="1" source="aqI84xdJ39RmTFRJNVE5-28" target="aqI84xdJ39RmTFRJNVE5-29" edge="1">
          <mxGeometry width="50" height="50" relative="1" as="geometry">
            <mxPoint x="730" y="1950" as="sourcePoint" />
            <mxPoint x="780" y="1900" as="targetPoint" />
          </mxGeometry>
        </mxCell>
        <mxCell id="W1Z3jp5pD68HIRzO2V5Z-71" value="" style="endArrow=none;html=1;rounded=0;entryX=0;entryY=0.5;entryDx=0;entryDy=0;" parent="1" target="fhVOCeMNc6bVe-KWatDS-10" edge="1">
          <mxGeometry width="50" height="50" relative="1" as="geometry">
            <mxPoint x="600" y="1750" as="sourcePoint" />
            <mxPoint x="780" y="1900" as="targetPoint" />
          </mxGeometry>
        </mxCell>
        <mxCell id="W1Z3jp5pD68HIRzO2V5Z-72" value="" style="endArrow=none;html=1;rounded=0;exitX=1;exitY=0.5;exitDx=0;exitDy=0;entryX=0;entryY=0.5;entryDx=0;entryDy=0;" parent="1" source="aqI84xdJ39RmTFRJNVE5-26" target="W1Z3jp5pD68HIRzO2V5Z-1" edge="1">
          <mxGeometry width="50" height="50" relative="1" as="geometry">
            <mxPoint x="730" y="1950" as="sourcePoint" />
            <mxPoint x="780" y="1900" as="targetPoint" />
          </mxGeometry>
        </mxCell>
        <mxCell id="W1Z3jp5pD68HIRzO2V5Z-73" value="" style="endArrow=none;html=1;rounded=0;exitX=1;exitY=0.5;exitDx=0;exitDy=0;entryX=0;entryY=0.5;entryDx=0;entryDy=0;" parent="1" source="aqI84xdJ39RmTFRJNVE5-26" target="W1Z3jp5pD68HIRzO2V5Z-2" edge="1">
          <mxGeometry width="50" height="50" relative="1" as="geometry">
            <mxPoint x="730" y="1950" as="sourcePoint" />
            <mxPoint x="780" y="1900" as="targetPoint" />
          </mxGeometry>
        </mxCell>
        <mxCell id="W1Z3jp5pD68HIRzO2V5Z-74" value="" style="endArrow=none;html=1;rounded=0;exitX=1;exitY=0.5;exitDx=0;exitDy=0;entryX=0;entryY=0.5;entryDx=0;entryDy=0;" parent="1" source="aqI84xdJ39RmTFRJNVE5-26" target="W1Z3jp5pD68HIRzO2V5Z-5" edge="1">
          <mxGeometry width="50" height="50" relative="1" as="geometry">
            <mxPoint x="730" y="1950" as="sourcePoint" />
            <mxPoint x="780" y="1900" as="targetPoint" />
          </mxGeometry>
        </mxCell>
        <mxCell id="W1Z3jp5pD68HIRzO2V5Z-75" value="" style="endArrow=none;html=1;rounded=0;entryX=0;entryY=0.5;entryDx=0;entryDy=0;exitX=1;exitY=0.5;exitDx=0;exitDy=0;" parent="1" source="W1Z3jp5pD68HIRzO2V5Z-2" target="W1Z3jp5pD68HIRzO2V5Z-3" edge="1">
          <mxGeometry width="50" height="50" relative="1" as="geometry">
            <mxPoint x="730" y="1950" as="sourcePoint" />
            <mxPoint x="780" y="1900" as="targetPoint" />
          </mxGeometry>
        </mxCell>
        <mxCell id="W1Z3jp5pD68HIRzO2V5Z-76" value="" style="endArrow=none;html=1;rounded=0;entryX=0;entryY=0.5;entryDx=0;entryDy=0;exitX=1;exitY=0.5;exitDx=0;exitDy=0;" parent="1" source="W1Z3jp5pD68HIRzO2V5Z-5" target="W1Z3jp5pD68HIRzO2V5Z-6" edge="1">
          <mxGeometry width="50" height="50" relative="1" as="geometry">
            <mxPoint x="730" y="2070" as="sourcePoint" />
            <mxPoint x="780" y="2020" as="targetPoint" />
          </mxGeometry>
        </mxCell>
        <mxCell id="W1Z3jp5pD68HIRzO2V5Z-77" value="" style="endArrow=none;html=1;rounded=0;exitX=1;exitY=0.5;exitDx=0;exitDy=0;entryX=0;entryY=0.5;entryDx=0;entryDy=0;" parent="1" source="W1Z3jp5pD68HIRzO2V5Z-5" target="W1Z3jp5pD68HIRzO2V5Z-22" edge="1">
          <mxGeometry width="50" height="50" relative="1" as="geometry">
            <mxPoint x="730" y="2070" as="sourcePoint" />
            <mxPoint x="780" y="2020" as="targetPoint" />
          </mxGeometry>
        </mxCell>
        <mxCell id="W1Z3jp5pD68HIRzO2V5Z-78" value="" style="endArrow=none;html=1;rounded=0;exitX=1;exitY=0.5;exitDx=0;exitDy=0;entryX=0;entryY=0.5;entryDx=0;entryDy=0;" parent="1" source="aqI84xdJ39RmTFRJNVE5-2" target="aqI84xdJ39RmTFRJNVE5-16" edge="1">
          <mxGeometry width="50" height="50" relative="1" as="geometry">
            <mxPoint x="730" y="780" as="sourcePoint" />
            <mxPoint x="780" y="730" as="targetPoint" />
          </mxGeometry>
        </mxCell>
        <mxCell id="W1Z3jp5pD68HIRzO2V5Z-79" value="" style="endArrow=none;html=1;rounded=0;exitX=1;exitY=0.5;exitDx=0;exitDy=0;entryX=0;entryY=0.5;entryDx=0;entryDy=0;" parent="1" source="aqI84xdJ39RmTFRJNVE5-2" target="W1Z3jp5pD68HIRzO2V5Z-10" edge="1">
          <mxGeometry width="50" height="50" relative="1" as="geometry">
            <mxPoint x="730" y="600" as="sourcePoint" />
            <mxPoint x="780" y="550" as="targetPoint" />
          </mxGeometry>
        </mxCell>
        <mxCell id="W1Z3jp5pD68HIRzO2V5Z-80" value="" style="endArrow=none;html=1;rounded=0;exitX=1;exitY=0.5;exitDx=0;exitDy=0;entryX=0;entryY=0.5;entryDx=0;entryDy=0;" parent="1" source="aqI84xdJ39RmTFRJNVE5-2" target="W1Z3jp5pD68HIRzO2V5Z-19" edge="1">
          <mxGeometry width="50" height="50" relative="1" as="geometry">
            <mxPoint x="730" y="460" as="sourcePoint" />
            <mxPoint x="780" y="410" as="targetPoint" />
          </mxGeometry>
        </mxCell>
        <mxCell id="W1Z3jp5pD68HIRzO2V5Z-81" value="" style="endArrow=none;html=1;rounded=0;exitX=1;exitY=0.5;exitDx=0;exitDy=0;" parent="1" source="W1Z3jp5pD68HIRzO2V5Z-10" target="W1Z3jp5pD68HIRzO2V5Z-11" edge="1">
          <mxGeometry width="50" height="50" relative="1" as="geometry">
            <mxPoint x="730" y="2430" as="sourcePoint" />
            <mxPoint x="780" y="2380" as="targetPoint" />
          </mxGeometry>
        </mxCell>
        <mxCell id="W1Z3jp5pD68HIRzO2V5Z-82" value="" style="endArrow=none;html=1;rounded=0;exitX=1;exitY=0.5;exitDx=0;exitDy=0;entryX=0;entryY=0.5;entryDx=0;entryDy=0;" parent="1" source="W1Z3jp5pD68HIRzO2V5Z-10" target="W1Z3jp5pD68HIRzO2V5Z-12" edge="1">
          <mxGeometry width="50" height="50" relative="1" as="geometry">
            <mxPoint x="730" y="2540" as="sourcePoint" />
            <mxPoint x="780" y="2490" as="targetPoint" />
          </mxGeometry>
        </mxCell>
        <mxCell id="W1Z3jp5pD68HIRzO2V5Z-83" value="" style="endArrow=none;html=1;rounded=0;exitX=1;exitY=0.5;exitDx=0;exitDy=0;entryX=0;entryY=0.5;entryDx=0;entryDy=0;" parent="1" source="W1Z3jp5pD68HIRzO2V5Z-10" target="W1Z3jp5pD68HIRzO2V5Z-13" edge="1">
          <mxGeometry width="50" height="50" relative="1" as="geometry">
            <mxPoint x="730" y="2540" as="sourcePoint" />
            <mxPoint x="780" y="2490" as="targetPoint" />
          </mxGeometry>
        </mxCell>
        <mxCell id="W1Z3jp5pD68HIRzO2V5Z-84" value="" style="endArrow=none;html=1;rounded=0;exitX=1;exitY=0.5;exitDx=0;exitDy=0;entryX=0;entryY=0.5;entryDx=0;entryDy=0;" parent="1" source="W1Z3jp5pD68HIRzO2V5Z-10" target="W1Z3jp5pD68HIRzO2V5Z-14" edge="1">
          <mxGeometry width="50" height="50" relative="1" as="geometry">
            <mxPoint x="730" y="2540" as="sourcePoint" />
            <mxPoint x="780" y="2490" as="targetPoint" />
          </mxGeometry>
        </mxCell>
        <mxCell id="W1Z3jp5pD68HIRzO2V5Z-85" value="" style="endArrow=none;html=1;rounded=0;exitX=1;exitY=0.5;exitDx=0;exitDy=0;entryX=0;entryY=0.5;entryDx=0;entryDy=0;" parent="1" source="W1Z3jp5pD68HIRzO2V5Z-10" target="W1Z3jp5pD68HIRzO2V5Z-15" edge="1">
          <mxGeometry width="50" height="50" relative="1" as="geometry">
            <mxPoint x="730" y="2540" as="sourcePoint" />
            <mxPoint x="780" y="2490" as="targetPoint" />
          </mxGeometry>
        </mxCell>
        <mxCell id="W1Z3jp5pD68HIRzO2V5Z-86" value="" style="endArrow=none;html=1;rounded=0;exitX=1;exitY=0.5;exitDx=0;exitDy=0;entryX=0;entryY=0.5;entryDx=0;entryDy=0;" parent="1" source="W1Z3jp5pD68HIRzO2V5Z-10" target="W1Z3jp5pD68HIRzO2V5Z-16" edge="1">
          <mxGeometry width="50" height="50" relative="1" as="geometry">
            <mxPoint x="730" y="2660" as="sourcePoint" />
            <mxPoint x="780" y="2610" as="targetPoint" />
          </mxGeometry>
        </mxCell>
        <mxCell id="W1Z3jp5pD68HIRzO2V5Z-87" value="" style="endArrow=none;html=1;rounded=0;exitX=1;exitY=0.5;exitDx=0;exitDy=0;entryX=0;entryY=0.5;entryDx=0;entryDy=0;" parent="1" source="W1Z3jp5pD68HIRzO2V5Z-10" target="W1Z3jp5pD68HIRzO2V5Z-17" edge="1">
          <mxGeometry width="50" height="50" relative="1" as="geometry">
            <mxPoint x="730" y="2660" as="sourcePoint" />
            <mxPoint x="780" y="2610" as="targetPoint" />
          </mxGeometry>
        </mxCell>
        <mxCell id="W1Z3jp5pD68HIRzO2V5Z-88" value="" style="endArrow=none;html=1;rounded=0;exitX=1;exitY=0.5;exitDx=0;exitDy=0;entryX=0;entryY=0.5;entryDx=0;entryDy=0;" parent="1" source="W1Z3jp5pD68HIRzO2V5Z-10" target="W1Z3jp5pD68HIRzO2V5Z-18" edge="1">
          <mxGeometry width="50" height="50" relative="1" as="geometry">
            <mxPoint x="730" y="2660" as="sourcePoint" />
            <mxPoint x="780" y="2610" as="targetPoint" />
          </mxGeometry>
        </mxCell>
        <mxCell id="W1Z3jp5pD68HIRzO2V5Z-89" value="" style="endArrow=none;html=1;rounded=0;exitX=1;exitY=0.5;exitDx=0;exitDy=0;entryX=0;entryY=0.5;entryDx=0;entryDy=0;" parent="1" source="W1Z3jp5pD68HIRzO2V5Z-19" target="W1Z3jp5pD68HIRzO2V5Z-20" edge="1">
          <mxGeometry width="50" height="50" relative="1" as="geometry">
            <mxPoint x="730" y="2660" as="sourcePoint" />
            <mxPoint x="780" y="2610" as="targetPoint" />
          </mxGeometry>
        </mxCell>
        <mxCell id="W1Z3jp5pD68HIRzO2V5Z-90" value="" style="endArrow=none;html=1;rounded=0;exitX=1;exitY=0.5;exitDx=0;exitDy=0;entryX=0;entryY=0.5;entryDx=0;entryDy=0;" parent="1" source="W1Z3jp5pD68HIRzO2V5Z-19" target="W1Z3jp5pD68HIRzO2V5Z-21" edge="1">
          <mxGeometry width="50" height="50" relative="1" as="geometry">
            <mxPoint x="730" y="2820" as="sourcePoint" />
            <mxPoint x="780" y="2770" as="targetPoint" />
          </mxGeometry>
        </mxCell>
      </root>
    </mxGraphModel>
  </diagram>
</mxfile>
